<svg xmlns="http://www.w3.org/2000/svg" version="1.1" xmlns:xlink="http://www.w3.org/1999/xlink" xmlns:svgjs="http://svgjs.dev/svgjs" width="1920" height="1080" preserveAspectRatio="none" viewBox="0 0 1920 1080"><g mask="url(&quot;#SvgjsMask1019&quot;)" fill="none"><rect width="1920" height="1080" x="0" y="0" fill="#141414"></rect><path d="M810 257.73C802.72 257.73 796.5 262.1 796.5 270C796.5 288.49 802.01 310.5 810 310.5C818.4 310.5 829.29 287.48 829.29 270C829.29 261.09 819.12 257.73 810 257.73" stroke="#252525" stroke-width="2"></path><path d="M1256.09 0C1308.05 11.08 1304.72 57.6 1350 57.6C1388.29 57.6 1379.84 9.25 1423.22 0C1514.84 -19.55 1521.61 0 1620 0C1755 0 1755 0 1890 0C2025 0 2092.5 -67.5 2160 0C2227.5 67.5 2160 135 2160 270C2160 405 2160 405 2160 540C2160 675 2160 675 2160 810C2160 945 2227.5 1012.5 2160 1080C2092.5 1147.5 2025 1080 1890 1080C1755 1080 1755 1080 1620 1080C1485 1080 1485 1080 1350 1080C1215 1080 1215 1080 1080 1080C945 1080 945 1080 810 1080C675 1080 675 1080 540 1080C405 1080 405 1080 270 1080C135 1080 67.5 1147.5 0 1080C-67.5 1012.5 0 945 0 810C0 765 -22.29 720 0 720C36.77 720 66.63 757.19 118.12 810C201.63 895.65 217.18 996.92 270 996.92C311.81 996.92 267.91 895.02 307.38 810C373.98 666.56 493.03 644.86 482.14 540C474.34 464.86 380.96 468.12 270 450C139.89 428.75 79.05 513.95 0 461.25C-55.95 423.95 0 365.63 0 270C0 135 -67.5 67.5 0 0C67.5 -67.5 135 0 270 0C405 0 405 0 540 0C675 0 675 0 810 0C945 0 945 0 1080 0C1168.05 0 1173.05 -17.72 1256.09 0" stroke="#252525" stroke-width="2"></path><path d="M1890 483.58C1863.12 483.58 1849.1 504.1 1833.58 540C1778.53 667.31 1733.46 684.9 1748.86 810C1761.67 913.99 1821.82 998.18 1890 998.18C1955.76 998.18 2006.32 912.21 2016.73 810C2029.65 683.12 1986.96 669.53 1936.67 540C1923.59 506.32 1914.67 483.58 1890 483.58" stroke="#252525" stroke-width="2"></path><path d="M810 671.14C761.11 671.14 744.32 742.45 744.32 810C744.32 864.71 764.57 915.65 810 915.65C884.2 915.65 983.57 868.39 983.57 810C983.57 746.13 880.74 671.14 810 671.14" stroke="#252525" stroke-width="2"></path><path d="M0 148.5C14.44 72.38 -5.21 31.03 51.21 0C129.79 -43.22 160.61 0 270 0C369.14 0 383.64 -29.36 468.28 0C518.64 17.47 502.4 93.67 540 93.67C579.98 93.67 569.17 18.83 623.45 0C704.17 -28 716.72 0 810 0C945 0 945 0 1080 0C1094.68 0 1096.64 -6.95 1109.35 0C1231.64 66.85 1233.97 147.6 1350 147.6C1448.11 147.6 1437.26 54.87 1537.63 0C1572.26 -18.93 1578.82 0 1620 0C1755 0 1755 0 1890 0C1906.88 0 1908.3 -6.36 1923.75 0C2043.3 49.23 2086.55 27.24 2160 111.18C2204.68 162.24 2160 190.59 2160 270C2160 405 2160 405 2160 540C2160 675 2160 675 2160 810C2160 945 2205 990 2160 1080C2137.5 1125 2025.86 1121.95 2025 1080C2023.1 986.95 2155.74 944.51 2154.49 810C2153.24 674.51 2098.9 667.42 2020 540C1966.65 453.84 1958.71 382.84 1890 382.84C1815.13 382.84 1794.82 449.68 1732.84 540C1659.82 646.39 1712.37 737.8 1620 776.25C1520.95 817.47 1477.17 755.74 1350 699.34C1210.82 637.61 1214.27 623.4 1087.3 540C1079.27 534.73 1083.29 531.14 1080 522C1034.64 396.14 1065.11 371.97 990 270C930.11 188.7 895.09 155.45 810 155.45C742.09 155.45 742.55 208.42 684 270C607.55 350.4 630.69 422.38 540 439.41C423.69 461.25 408.34 378.16 270 347.73C138.34 318.77 113.77 353.38 0 320.63C-21.23 314.52 0 295.32 0 270C0 209.25 -11.17 207.38 0 148.5" stroke="#252525" stroke-width="2"></path><path d="M411.23 810C411.23 724.69 478.19 642.6 540 642.6C599.13 642.6 653.11 724.95 653.11 810C653.11 901.65 599.31 996 540 996C478.37 996 411.23 901.39 411.23 810" stroke="#252525" stroke-width="2"></path><path d="M0 937.89C37.99 937.89 131.71 1037.7 131.71 1080C131.71 1108.75 31.68 1114.18 0 1080C-34.18 1043.12 -27.86 937.89 0 937.89" stroke="#252525" stroke-width="2"></path><path d="M762.35 1080C762.35 1075.46 787.95 1074.89 810 1062.39C946.77 984.89 950.13 895.44 1080 900C1200.85 904.24 1311.43 1029.7 1311.43 1080C1311.43 1119.7 1195.72 1080 1080 1080C945 1080 945 1080 810 1080C786.17 1080 762.35 1084.26 762.35 1080" stroke="#252525" stroke-width="2"></path><path d="M1375.96 1080C1375.96 1006.83 1503.42 831.18 1620 831.18C1727.78 831.18 1824.68 1003.92 1824.68 1080C1824.68 1128.33 1722.34 1080 1620 1080C1497.98 1080 1375.96 1131.24 1375.96 1080" stroke="#252525" stroke-width="2"></path><path d="M270 212.14C220.78 212.14 167.59 73.93 167.59 0C167.59 -32.14 218.8 0 270 0C316.4 0 362.81 -30.35 362.81 0C362.81 75.72 318.39 212.14 270 212.14" stroke="#252525" stroke-width="2"></path><path d="M394.62 270C394.62 251.07 473.56 231.43 540 231.43C562 231.43 571.5 250.87 571.5 270C571.5 288.68 561.65 307.06 540 307.06C473.21 307.06 394.62 288.88 394.62 270" stroke="#252525" stroke-width="2"></path><path d="M810 53.18C775 53.18 746.18 15.04 746.18 0C746.18 -11.55 778.09 0 810 0C863.18 0 916.36 -12.55 916.36 0C916.36 14.04 860.09 53.18 810 53.18" stroke="#252525" stroke-width="2"></path><path d="M1228.5 270C1241.15 222.33 1293.21 263.71 1350 237.6C1488.96 173.71 1485 90 1620 90C1755 90 1746.2 196.72 1890 237.6C2016.2 273.48 2037.05 228.78 2160 243.53C2172.05 244.98 2160 256.76 2160 270C2160 405 2160 405 2160 540C2160 595.97 2173.36 651.95 2160 651.95C2145.03 651.95 2140.14 590.42 2103.33 540C2005.14 405.49 2002.75 282.09 1890 282.09C1767.13 282.09 1757.45 408.5 1632.09 540C1622.45 550.11 1633.23 563.03 1620 565.31C1492.18 587.37 1480.07 598.09 1350 588.69C1304.94 585.43 1285.27 580.76 1269.73 540C1224.52 421.42 1201.02 373.53 1228.5 270" stroke="#252525" stroke-width="2"></path><path d="M515.08 810C515.08 793.49 528.04 777.6 540 777.6C551.44 777.6 561.89 793.54 561.89 810C561.89 827.74 551.48 846 540 846C528.07 846 515.08 827.69 515.08 810" stroke="#252525" stroke-width="2"></path><path d="M1030 1080C1030 1071.92 1055.91 1050 1080 1050C1100.19 1050 1118.57 1071.62 1118.57 1080C1118.57 1086.62 1099.28 1080 1080 1080C1055 1080 1030 1086.92 1030 1080" stroke="#252525" stroke-width="2"></path><path d="M1505.77 1080C1505.77 1045.75 1565.43 963.53 1620 963.53C1670.45 963.53 1715.81 1044.39 1715.81 1080C1715.81 1102.62 1667.9 1080 1620 1080C1562.89 1080 1505.77 1103.98 1505.77 1080" stroke="#252525" stroke-width="2"></path></g><defs><mask id="SvgjsMask1019"><rect width="1920" height="1080" fill="#ffffff"></rect></mask></defs></svg>