<svg width="41" height="17" viewBox="0 0 41 17" fill="none" xmlns="http://www.w3.org/2000/svg">
<g clip-path="url(#clip0_2174_6686)">
<path d="M29.2286 4.8182C30.3326 4.8182 31.1857 5.1193 31.8381 5.72149C32.4904 6.32361 32.7914 7.12651 32.7914 8.13012V12.9474H31.3864V11.8435H31.3362C30.7341 12.7468 29.881 13.1984 28.8773 13.1984C28.0243 13.1984 27.2715 12.9475 26.6694 12.4457C26.1174 11.9439 25.7661 11.2414 25.7661 10.4887C25.7661 9.6858 26.0673 9.03341 26.6694 8.53161C27.2715 8.0298 28.1246 7.8291 29.1283 7.8291C30.0315 7.8291 30.7341 7.97969 31.286 8.3309V7.97969C31.286 7.51129 31.1112 7.04298 30.7614 6.7378L30.6838 6.67498C30.2824 6.32369 29.7806 6.12298 29.2286 6.12298C28.3755 6.12298 27.7232 6.47428 27.2715 7.17678L25.9669 6.37373C26.7697 5.31992 27.8235 4.8182 29.2286 4.8182ZM22.1532 1.40588C23.0536 1.40588 23.9093 1.71922 24.5934 2.30353L24.7124 2.40941C25.4149 3.01161 25.7661 3.9149 25.7661 4.86831C25.7661 5.82173 25.4149 6.67482 24.7124 7.32714C24.0098 7.97953 23.1568 8.33075 22.1532 8.33075L19.7446 8.28055V12.9474H18.2391V1.40588H22.1532ZM29.4293 9.03333C28.8272 9.03333 28.3253 9.18384 27.9239 9.48494C27.5224 9.73584 27.3217 10.0871 27.3217 10.5387C27.3217 10.9402 27.5225 11.2914 27.8235 11.4922C28.1748 11.7431 28.5763 11.8936 28.9777 11.8936C29.5397 11.8936 30.1017 11.675 30.5414 11.2787L30.6337 11.1911C31.1355 10.7395 31.3864 10.1875 31.3864 9.58526C30.9348 9.23404 30.2824 9.03326 29.4293 9.03326M22.2537 2.81082H19.7446V6.82549H22.2537C22.8056 6.82549 23.3576 6.62479 23.7089 6.22337C24.5117 5.47067 24.5117 4.21616 23.7591 3.46337L23.7089 3.41318C23.3074 3.01177 22.8056 2.76086 22.2536 2.81106M40.9206 5.0691L35.9528 16.4601H34.4474L36.304 12.4958L33.0423 5.1193H34.6481L37.0065 10.7896H37.0567L39.365 5.1193H40.9206V5.0691Z" fill="white"/>
<path d="M13.7731 7.277C13.7731 6.8254 13.7229 6.37379 13.6727 5.92218H7.40027V8.4814H10.963C10.8125 9.28422 10.3609 10.0369 9.65839 10.4886V12.1445H11.8161C13.0706 10.9904 13.7731 9.28422 13.7731 7.27708" fill="#4285F4"/>
<path d="M7.4002 13.7504C9.20663 13.7504 10.712 13.1482 11.816 12.1446L9.65832 10.4887C9.05612 10.8901 8.30341 11.141 7.4002 11.141C5.694 11.141 4.18859 9.98685 3.68679 8.38104H1.47894V10.0872C2.63306 12.3453 4.89118 13.7504 7.4002 13.7504Z" fill="#34A853"/>
<path d="M3.68675 8.381C3.38574 7.57809 3.38574 6.67488 3.68675 5.82178V4.11566H1.47891C0.525421 5.97237 0.525421 8.18029 1.47891 10.0871L3.68675 8.381Z" fill="#FBBC04"/>
<path d="M7.40019 3.1121C8.3536 3.1121 9.25682 3.4634 9.95941 4.11571L11.8662 2.20889C10.6618 1.10489 9.05611 0.452576 7.45031 0.502693C4.94129 0.502693 2.63305 1.90779 1.52905 4.16591L3.73697 5.87203C4.18858 4.26622 5.69399 3.1121 7.40019 3.1121Z" fill="#EA4335"/>
</g>
<defs>
<clipPath id="clip0_2174_6686">
<rect width="40.1569" height="16" fill="white" transform="translate(0.763794 0.5)"/>
</clipPath>
</defs>
</svg>
