<svg width="15" height="17" viewBox="0 0 15 17" fill="none" xmlns="http://www.w3.org/2000/svg">
<g clip-path="url(#clip0_2174_6680)">
<path d="M12.1743 1.74539C11.436 0.903955 10.1016 0.543213 8.3944 0.543213H3.4397C3.27079 0.543219 3.10742 0.60348 2.97897 0.713161C2.85052 0.822842 2.7654 0.974749 2.73893 1.14157L0.675886 14.2259C0.634879 14.4839 0.834667 14.7176 1.09618 14.7176H4.15504L4.92325 9.84494L4.89941 9.99752C4.95414 9.65309 5.24871 9.39905 5.59753 9.39905H7.05109C9.90661 9.39905 12.1425 8.23921 12.7957 4.88403C12.8151 4.7848 12.8319 4.68822 12.8464 4.59386C12.7639 4.55021 12.7639 4.55021 12.8464 4.59386C13.0409 3.35376 12.8451 2.50962 12.1743 1.74539Z" fill="#27346A"/>
<path d="M6.09369 4.14713C6.17731 4.10731 6.26878 4.08668 6.3614 4.08674H10.2458C10.7058 4.08674 11.1348 4.11667 11.5269 4.17977C11.6366 4.19726 11.7457 4.21815 11.8541 4.24239C12.0078 4.2763 12.1597 4.3178 12.3092 4.36674C12.502 4.43111 12.6814 4.50607 12.8464 4.59386C13.0409 3.35328 12.8451 2.50962 12.1743 1.74539C11.4356 0.903955 10.1016 0.543213 8.3944 0.543213H3.43928C3.0904 0.543213 2.79361 0.7972 2.73893 1.14157L0.675886 14.2254C0.63488 14.4839 0.834668 14.7172 1.09575 14.7172H4.15504L5.74884 4.61018C5.76451 4.51084 5.80408 4.41679 5.86416 4.33613C5.92423 4.25547 6.003 4.19061 6.09369 4.14713Z" fill="white"/>
<path opacity="0.46" d="M12.7957 4.88404C12.1426 8.23875 9.90671 9.39906 7.05113 9.39906H5.59715C5.24833 9.39906 4.9537 9.6531 4.8995 9.99753L3.9438 16.0561C3.90809 16.2819 4.08271 16.4865 4.31116 16.4865H6.8897C7.03741 16.4864 7.18026 16.4337 7.29255 16.3378C7.40485 16.2418 7.47923 16.1089 7.50231 15.963L7.52742 15.8316L8.01341 12.7516L8.04472 12.5814C8.0678 12.4355 8.14217 12.3026 8.25446 12.2067C8.36675 12.1107 8.50958 12.058 8.65728 12.0579H9.04319C11.541 12.0579 13.4969 11.0431 14.0685 8.10826C14.307 6.88177 14.1836 5.85777 13.5525 5.13851C13.3611 4.92065 13.1233 4.74073 12.8464 4.59387C12.8314 4.68871 12.8152 4.78481 12.7957 4.88404Z" fill="white"/>
<path d="M12.1628 4.32132C12.061 4.29158 11.9582 4.26525 11.8546 4.24238C11.7461 4.21853 11.637 4.19779 11.5273 4.18018C11.1349 4.11666 10.7061 4.08667 10.2457 4.08667H6.36183C6.26914 4.08646 6.17761 4.10727 6.09412 4.14755C6.00333 4.19089 5.92447 4.25571 5.86437 4.33639C5.80427 4.41707 5.76475 4.51119 5.74922 4.61059L4.92368 9.84492L4.89984 9.99751C4.95415 9.65308 5.24872 9.39904 5.59759 9.39904H7.05158C9.9071 9.39904 12.143 8.2392 12.7961 4.88402C12.8155 4.78479 12.8319 4.68863 12.8469 4.59385C12.6815 4.50654 12.5024 4.4311 12.3096 4.36715C12.261 4.35102 12.2121 4.33574 12.1629 4.32132" fill="#E2E6FA"/>
</g>
<defs>
<clipPath id="clip0_2174_6680">
<rect width="13.5629" height="16" fill="white" transform="translate(0.668701 0.5)"/>
</clipPath>
</defs>
</svg>
