<svg width="39" height="13" viewBox="0 0 39 13" fill="none" xmlns="http://www.w3.org/2000/svg">
<path d="M14.8069 0.231455L9.70119 12.8038H6.36994L3.85769 2.76906C3.70494 2.15185 3.57331 1.92543 3.10856 1.66546C2.35131 1.24113 1.10006 0.843634 -6.10352e-05 0.595408L0.074689 0.231455H5.43719C5.78762 0.231092 6.12663 0.360037 6.39303 0.595013C6.65943 0.829989 6.83567 1.15552 6.88994 1.51284L8.21756 8.78854L11.4968 0.231455H14.8069ZM27.8606 8.69965C27.8736 5.38047 23.4146 5.19765 23.4454 3.715C23.4552 3.26384 23.8712 2.78416 24.7812 2.66172C25.8477 2.55718 26.9217 2.75188 27.8898 3.22526L28.4423 0.558509C27.4998 0.192787 26.5015 0.00365063 25.4946 0C22.3794 0 20.1873 1.71075 20.1678 4.15779C20.1483 5.96749 21.7327 6.97549 22.9271 7.57928C24.1556 8.19481 24.5683 8.59063 24.5618 9.14076C24.5537 9.98607 23.5836 10.3567 22.6768 10.3718C21.0924 10.397 20.1743 9.93072 19.4398 9.57851L18.8694 12.3325C19.6056 12.6813 20.9641 12.9866 22.3729 13C25.6831 13 27.8492 11.3127 27.8606 8.69965ZM36.0847 12.8038H38.9999L36.4568 0.231455H33.7658C33.4783 0.228705 33.1966 0.315178 32.9573 0.479661C32.7179 0.644144 32.532 0.87905 32.4236 1.15392L27.6964 12.8038H31.0049L31.6631 10.9253H35.7061L36.0847 12.8038ZM32.5698 8.34912L34.2273 3.62779L35.1828 8.34912H32.5698ZM19.3098 0.231455L16.7049 12.8038H13.5524L16.1606 0.231455H19.3098Z" fill="white"/>
</svg>
