<svg width="18" height="17" viewBox="0 0 18 17" fill="none" xmlns="http://www.w3.org/2000/svg">
<g clip-path="url(#clip0_2174_6672)">
<path d="M17.924 14.3784C17.924 15.2522 17.924 16.1262 17.924 17C12.2573 17 6.59075 17 0.924011 17C0.924011 11.3333 0.924011 5.66667 0.924011 0C6.59075 0 12.2573 0 17.924 0C17.924 0.893962 17.924 1.78813 17.924 2.68209C17.14 2.68189 16.3561 2.68451 15.5723 2.67846C15.4681 2.67765 15.4318 2.7202 15.4017 2.8045C15.2575 3.20883 15.1103 3.61195 14.9633 4.01527C14.95 4.05197 14.9306 4.08645 14.9082 4.13485C14.8852 4.07536 14.868 4.0318 14.8517 3.98784C14.7031 3.58875 14.5551 3.18926 14.4057 2.79058C14.3853 2.73593 14.3718 2.67947 14.2868 2.67967C13.2304 2.68189 12.1739 2.68128 11.1175 2.67866C11.0235 2.67846 10.9962 2.71435 10.997 2.80429C11.0006 3.17737 10.9984 3.55024 10.9984 3.92331C10.9984 3.95457 10.9984 3.98562 10.9984 4.01688C10.9649 3.98945 10.95 3.96062 10.9364 3.93097C10.7616 3.54983 10.5851 3.1695 10.4133 2.78695C10.3782 2.70851 10.332 2.67846 10.2447 2.67866C9.42381 2.68168 8.60288 2.68189 7.78196 2.67866C7.68626 2.67826 7.63861 2.71234 7.60065 2.79885C7.29437 3.49962 6.98304 4.19817 6.67413 4.89773C6.09548 6.20792 5.51724 7.51811 4.9394 8.82851C4.88953 8.94164 4.89862 8.95374 5.02178 8.95374C5.66766 8.95394 6.31374 8.95374 6.95962 8.95394C7.09287 8.95394 7.09651 8.95636 7.09671 9.08804C7.09711 10.802 7.09731 12.5157 7.09691 14.2296C7.09691 14.3794 7.09509 14.3814 7.24147 14.3814C9.40483 14.3818 11.5682 14.3824 13.7316 14.3788C13.7871 14.3788 13.8573 14.347 13.8953 14.3064C14.0926 14.0951 14.2813 13.8761 14.4731 13.6601C14.5549 13.5679 14.6373 13.4764 14.739 13.3624C14.7691 13.4054 14.7879 13.4373 14.8115 13.4651C15.028 13.7222 15.2464 13.9775 15.4616 14.2356C15.5365 14.3254 15.6209 14.3869 15.7435 14.3863C16.4705 14.383 17.1974 14.381 17.924 14.3784Z" fill="white"/>
<path d="M17.924 8.14707C17.7159 8.14244 17.5079 8.13719 17.2998 8.13356C17.1685 8.13134 17.0373 8.12792 16.9062 8.13235C16.8164 8.13538 16.7845 8.09787 16.7932 8.01257C16.7972 7.97264 16.7938 7.9319 16.7938 7.89157C16.7938 6.85665 16.7938 5.82152 16.7938 4.7866C16.7938 4.7505 16.7938 4.71461 16.7938 4.67851C16.7867 4.67649 16.7795 4.67468 16.7724 4.67266C16.7348 4.76926 16.6961 4.86525 16.6599 4.96225C16.2796 5.97983 15.899 6.99741 15.521 8.01579C15.4897 8.10029 15.4455 8.13498 15.3524 8.13336C15.053 8.12852 14.7536 8.13155 14.4542 8.13356C14.3914 8.13397 14.3492 8.12207 14.3239 8.0531C14.1235 7.50721 13.9199 6.96232 13.7154 6.41804C13.4953 5.83221 13.2731 5.24699 13.0516 4.66177C13.0493 4.65592 13.0433 4.65169 13.0195 4.62386C13.0195 4.67387 13.0195 4.70291 13.0195 4.73195C13.0197 5.81729 13.0199 6.90283 13.0199 7.98817C13.0199 8.13094 13.0197 8.13114 12.8761 8.13135C12.1426 8.13235 11.4093 8.13336 10.6758 8.13437C10.5155 8.13457 10.5101 8.12933 10.4499 7.97647C10.3677 7.76815 10.2817 7.56125 10.2011 7.35213C10.1761 7.28719 10.141 7.25836 10.0677 7.25856C9.39475 7.26098 8.72202 7.26098 8.04909 7.25856C7.97297 7.25836 7.93602 7.28498 7.90897 7.35616C7.82276 7.58424 7.72827 7.80929 7.63863 8.03616C7.61379 8.09908 7.57563 8.13437 7.50376 8.13397C7.11692 8.13114 6.73007 8.13034 6.34303 8.12852C6.32991 8.12852 6.31678 8.12489 6.28387 8.12025C6.30447 8.06439 6.32042 8.01277 6.34222 7.96356C6.72644 7.0942 7.11126 6.22525 7.49629 5.35609C7.74705 4.78983 7.99902 4.22397 8.24836 3.6571C8.27703 3.59196 8.31762 3.56817 8.38727 3.56857C8.83811 3.57059 9.28896 3.57059 9.7398 3.56857C9.81713 3.56817 9.86316 3.59519 9.89506 3.66758C10.2896 4.56518 10.6867 5.46176 11.0824 6.35895C11.3255 6.90989 11.5672 7.46143 11.8099 8.01257C11.8135 8.02083 11.8212 8.02729 11.847 8.05935C11.847 8.00027 11.847 7.96598 11.847 7.9319C11.8472 6.53056 11.8472 5.12922 11.8474 3.72808C11.8474 3.57643 11.8543 3.56958 12.0071 3.56958C12.5555 3.56958 13.1039 3.57159 13.6524 3.56776C13.7586 3.56696 13.8156 3.60124 13.8541 3.70409C14.1862 4.59059 14.5236 5.47547 14.8598 6.36056C14.8721 6.39323 14.8893 6.42409 14.9143 6.47753C14.9408 6.42772 14.9589 6.4011 14.97 6.37165C15.3078 5.47749 15.6462 4.58333 15.9803 3.68775C16.0126 3.60124 16.0565 3.56756 16.1483 3.56796C16.7405 3.57079 17.3325 3.56917 17.9246 3.56917C17.924 5.09534 17.924 6.62111 17.924 8.14707ZM9.05011 4.57143C9.02326 4.61983 9.00488 4.64624 8.99317 4.67508C8.79168 5.16794 8.59058 5.661 8.3905 6.15447C8.34931 6.2563 8.36042 6.27143 8.46924 6.27163C8.85891 6.27203 9.24878 6.27203 9.63845 6.27163C9.75414 6.27143 9.76403 6.2559 9.71981 6.14821C9.52155 5.66483 9.32348 5.18145 9.12401 4.69868C9.10826 4.66117 9.08302 4.62729 9.05011 4.57143Z" fill="white"/>
<path d="M17.924 12.4626C17.905 12.4509 17.8828 12.4427 17.8677 12.4271C17.4885 12.0414 17.111 11.654 16.7304 11.2696C16.6821 11.2208 16.6868 11.1934 16.7322 11.148C17.1174 10.7634 17.5006 10.3769 17.8846 9.99128C17.8959 9.97978 17.9107 9.97172 17.9238 9.96204C17.924 10.7955 17.924 11.6292 17.924 12.4626Z" fill="white"/>
<path d="M11.806 11.7161C11.7505 11.7161 11.7107 11.7161 11.671 11.7161C10.8939 11.7161 10.1165 11.7161 9.33943 11.7161C9.20678 11.7161 9.20658 11.7165 9.20597 11.8518C9.20516 12.0266 9.20799 12.2013 9.20335 12.3759C9.20092 12.4697 9.23282 12.5054 9.33135 12.505C10.1287 12.5017 10.9262 12.5052 11.7235 12.5009C11.8285 12.5003 11.8551 12.5346 11.8529 12.6336C11.8472 12.8788 11.8521 13.1243 11.8525 13.3695C11.8527 13.4969 11.8398 13.5104 11.716 13.5106C10.5351 13.5108 9.35417 13.5096 8.17325 13.5127C8.06947 13.5129 8.03838 13.4747 8.03939 13.3777C8.04242 13.0821 8.04 12.7863 8.04 12.4906C8.0398 11.3549 8.03939 10.2189 8.03939 9.08318C8.03939 8.96319 8.04928 8.9529 8.17224 8.9529C9.35659 8.9527 10.5409 8.95412 11.7251 8.95069C11.8303 8.95028 11.8565 8.98598 11.8541 9.08419C11.8484 9.32255 11.8523 9.56132 11.8525 9.79988C11.8527 9.94024 11.8511 9.94225 11.7132 9.94225C10.9225 9.94225 10.1319 9.94185 9.34124 9.94185C9.20698 9.94185 9.20637 9.94225 9.20597 10.0751C9.20537 10.2667 9.2086 10.4583 9.20496 10.6497C9.20375 10.711 9.22656 10.7368 9.28411 10.7388C9.33458 10.7406 9.38485 10.7432 9.43533 10.7432C10.1789 10.7432 10.9225 10.7426 11.6659 10.7424C11.803 10.7424 11.806 10.7461 11.806 10.8844C11.8062 11.1565 11.806 11.4281 11.806 11.7161Z" fill="white"/>
<path d="M14.7158 12.02C14.3368 12.4259 13.9635 12.826 13.5902 13.2261C13.5765 13.2408 13.565 13.2576 13.5509 13.2717C13.2745 13.5522 13.3768 13.5082 12.9972 13.5105C12.6609 13.5123 12.3243 13.5115 11.9879 13.5099C11.9568 13.5097 11.926 13.4959 11.8949 13.4885C11.9082 13.4564 11.9134 13.4167 11.9359 13.3933C12.2542 13.0612 12.5763 12.7325 12.8945 12.4001C13.2385 12.0408 13.5787 11.6778 13.9228 11.3184C13.9934 11.2446 13.9649 11.1908 13.9074 11.1297C13.5046 10.7009 13.1038 10.2704 12.7006 9.84185C12.464 9.59038 12.2242 9.34214 11.9859 9.09228C11.9516 9.05638 11.9189 9.01888 11.8723 8.96786C11.9138 8.961 11.9377 8.95374 11.9617 8.95374C12.4024 8.95293 12.8432 8.95011 13.2837 8.95656C13.3421 8.95737 13.4142 8.99347 13.4552 9.03682C13.8539 9.4595 14.2478 9.88682 14.6421 10.3139C14.7358 10.4154 14.7552 10.419 14.8477 10.3192C15.2309 9.90497 15.6141 9.49076 15.9949 9.07413C16.0694 8.99266 16.1479 8.9485 16.2646 8.95031C16.6648 8.95696 17.0653 8.95313 17.4655 8.95313C17.5008 8.95313 17.5362 8.95313 17.5715 8.95313C17.5755 8.96201 17.5796 8.97088 17.5836 8.97975C17.5279 9.04287 17.4738 9.10781 17.4158 9.16891C16.7968 9.8229 16.1778 10.4769 15.5565 11.1289C15.4974 11.191 15.496 11.2341 15.5553 11.297C16.0724 11.8437 16.5872 12.3927 17.1021 12.9416C17.2491 13.0983 17.395 13.2564 17.5396 13.4155C17.5572 13.4348 17.563 13.4651 17.5741 13.4903C17.5497 13.4972 17.5251 13.5099 17.5006 13.5099C17.0734 13.5111 16.646 13.5149 16.219 13.5064C16.1511 13.505 16.0671 13.4633 16.0195 13.4129C15.5904 12.9587 15.1679 12.4987 14.7431 12.0406C14.7368 12.0335 14.7277 12.0287 14.7158 12.02Z" fill="white"/>
</g>
<defs>
<clipPath id="clip0_2174_6672">
<rect width="17" height="17" fill="white" transform="translate(0.924011)"/>
</clipPath>
</defs>
</svg>
