<svg width="39" height="17" viewBox="0 0 39 17" fill="none" xmlns="http://www.w3.org/2000/svg">
<path d="M7.27076 2.56292C6.81795 3.10244 6.09659 3.52996 5.37643 3.46733C5.2813 2.73995 5.64017 1.96079 6.05444 1.47787C6.50604 0.927518 7.29605 0.532515 7.93672 0.5C8.01259 1.2599 7.71514 2.00655 7.27076 2.56292ZM7.9295 3.61064C6.88298 3.54682 5.98459 4.21158 5.48843 4.21158C4.98143 4.21158 4.22153 3.64195 3.3942 3.66122C2.32119 3.67447 1.31803 4.28745 0.77249 5.27375C-0.363142 7.23551 0.477442 10.1402 1.56852 11.7395C2.10201 12.5295 2.74028 13.3954 3.58206 13.3713C4.37809 13.3388 4.69843 12.845 5.65823 12.845C6.63008 12.845 6.90586 13.3713 7.75367 13.352C8.62436 13.3388 9.17592 12.562 9.70941 11.772C10.3176 10.8748 10.5681 9.99571 10.5813 9.95236C10.5681 9.93309 8.89412 9.28759 8.88208 7.34269C8.86883 5.7109 10.1983 4.93414 10.255 4.88958C9.5083 3.76118 8.32932 3.64195 7.92829 3.61185L7.9295 3.61064ZM13.9701 1.402V13.2701H15.7946V9.21293H18.3176C20.6189 9.21293 22.2375 7.61365 22.2375 5.30506C22.2375 2.99165 20.6515 1.40321 18.3802 1.40321L13.9701 1.402ZM15.7946 2.95793H17.8961C19.4761 2.95793 20.3805 3.81055 20.3805 5.30988C20.3805 6.8092 19.4761 7.66905 17.884 7.66905H15.7946V2.95793ZM25.5601 13.358C26.7078 13.358 27.7675 12.7752 28.2516 11.8455H28.2902V13.2701H29.9762V7.36076C29.9762 5.6555 28.6226 4.54636 26.5331 4.54636C24.6015 4.54636 23.1708 5.66875 23.1214 7.2054H24.758C24.8965 6.472 25.5613 5.99511 26.4838 5.99511C27.6001 5.99511 28.2215 6.52138 28.2215 7.48841V8.13992L25.9515 8.27841C23.8307 8.40968 22.6891 9.28157 22.6891 10.8062C22.6891 12.3428 23.8693 13.3592 25.5613 13.3592L25.5601 13.358ZM26.0562 11.9527C25.0832 11.9527 24.463 11.4818 24.463 10.7616C24.463 10.015 25.0591 9.57542 26.1935 9.50557L28.2203 9.38032V10.0511C28.2203 11.1627 27.2858 11.9527 26.049 11.9527H26.0562ZM32.2282 16.5C34.0021 16.5 34.8378 15.8099 35.5652 13.7338L38.7638 4.66438H36.914L34.7692 11.6697H34.7306L32.5858 4.66438H30.6795L33.766 13.3014L33.6022 13.8277C33.3192 14.7129 32.8688 15.0561 32.0656 15.0561C31.9211 15.0561 31.6453 15.038 31.5321 15.026V16.4506C31.6381 16.4807 32.0909 16.494 32.2221 16.494L32.2282 16.5Z" fill="white"/>
</svg>
