<svg width="28" height="17" viewBox="0 0 28 17" fill="none" xmlns="http://www.w3.org/2000/svg">
<path d="M4.15746 9.4293C3.95379 9.54414 3.72811 9.57557 3.4971 9.58359C3.43851 9.58571 3.3798 9.58552 3.31975 9.58503C3.31974 9.58503 3.31975 9.58503 3.31975 9.58503C3.31117 9.58496 3.30255 9.58488 3.29391 9.5848C3.26222 9.58452 3.23012 9.58424 3.19743 9.58424V7.34586C3.58177 7.3388 3.96012 7.33367 4.28113 7.58452C4.88582 8.05702 4.81982 9.05592 4.15746 9.4293Z" fill="white"/>
<path d="M22.7815 8.32895C22.8833 8.32365 22.9825 8.31849 23.0799 8.30273C23.3445 8.25975 23.4875 8.10802 23.5105 7.85204C23.5279 7.66182 23.4715 7.49694 23.2889 7.39462C23.1098 7.29418 22.9151 7.29856 22.7176 7.30302C22.693 7.30357 22.6684 7.30412 22.6438 7.30448V8.33706C22.6903 8.3337 22.7361 8.33131 22.7815 8.32895Z" fill="white"/>
<path d="M24.6329 6.97729L24.6476 6.98787L24.6502 6.9852C24.6625 6.97293 24.6746 6.9608 24.6868 6.94874C24.6887 6.94689 24.6905 6.94503 24.6924 6.94318C24.6934 6.94225 24.6943 6.94132 24.6953 6.9404L24.6728 6.92476L24.6289 6.8942L24.6329 6.97729Z" fill="white"/>
<path fill-rule="evenodd" clip-rule="evenodd" d="M24.7963 7.16045L24.7977 7.16063L24.7973 7.1627C24.8683 7.11586 24.8876 7.04754 24.8796 6.96991C24.8696 6.87752 24.7903 6.80086 24.6976 6.78963C24.5973 6.77744 24.5062 6.83005 24.4699 6.92147C24.4329 7.01385 24.4676 7.12131 24.5529 7.17777C24.6269 7.22685 24.7273 7.22011 24.7969 7.16173L24.7963 7.16045ZM24.7963 7.16045C24.7223 7.15628 24.6736 7.11682 24.6329 7.05684L24.6279 7.14537H24.5572V6.8493C24.5767 6.85075 24.5966 6.84945 24.6165 6.84817C24.6712 6.84463 24.7248 6.84117 24.7613 6.89581C24.7956 6.94713 24.7736 6.99653 24.7213 7.02604L24.7444 7.06753C24.7621 7.09915 24.7793 7.12973 24.7963 7.16045Z" fill="white"/>
<path fill-rule="evenodd" clip-rule="evenodd" d="M24.1394 13.4579C25.3618 12.0494 25.9802 10.4192 26.0155 8.58566C26.0262 8.032 25.9692 7.48283 25.8505 6.9404C25.4912 5.29834 24.6715 3.90457 23.3781 2.78153C21.8447 1.44967 20.0333 0.782775 17.9672 0.778605C15.8697 0.774326 13.7723 0.775265 11.6748 0.776204C10.7852 0.776603 9.89487 0.777001 9.0052 0.777001L6.72749 0.777073C5.2091 0.777144 3.69076 0.777215 2.17227 0.777001C2.03393 0.777001 1.90992 0.814532 1.80225 0.897934C1.64391 1.02047 1.58458 1.18439 1.58458 1.37557C1.58508 3.00339 1.58501 4.63122 1.58495 6.25904L1.58516 9.8198C1.58553 11.752 1.58591 13.6843 1.58291 15.6164C1.58258 16.0107 1.88359 16.2265 2.21693 16.2259C4.29996 16.2212 6.38318 16.2217 8.46629 16.2221L10.3206 16.2224C12.882 16.2224 15.4434 16.2224 18.0049 16.2221C18.1052 16.2221 18.2055 16.2195 18.3059 16.216C19.0582 16.1884 19.7926 16.0633 20.5066 15.8339C21.9494 15.3707 23.1654 14.5806 24.1394 13.4579ZM14.1602 6.65908C13.1398 6.65875 12.2978 7.4607 12.2854 8.42302C12.2724 9.43604 13.1158 10.2604 14.1488 10.2608C15.1936 10.2611 16.0326 9.46041 16.0329 8.46248C16.0329 7.46519 15.1962 6.6594 14.1602 6.65908ZM2.8827 6.76205C3.14312 6.75936 3.40352 6.75668 3.66311 6.76942C4.26413 6.79893 4.78249 7.01257 5.1225 7.51042C5.81153 8.51862 5.22717 9.88929 4.00979 10.1186C3.85679 10.1475 3.69845 10.1587 3.54211 10.162C3.31507 10.1665 3.08786 10.1656 2.86061 10.1646C2.7672 10.1643 2.67282 10.1639 2.5794 10.1639H2.50573V6.76974C2.51027 6.76909 2.51465 6.76825 2.51895 6.76742C2.52726 6.76583 2.53528 6.76429 2.5434 6.76429C2.65646 6.76439 2.76958 6.76322 2.8827 6.76205ZM23.4452 8.72937C23.4599 8.7252 23.4745 8.72168 23.4891 8.71815C23.7268 8.65753 23.9292 8.54588 24.0666 8.34315C24.2059 8.13689 24.2402 7.90593 24.2216 7.66663C24.1976 7.35644 24.0599 7.10752 23.7779 6.94328C23.5749 6.82524 23.3499 6.77263 23.1165 6.76782C22.8524 6.7624 22.5881 6.76302 22.3238 6.76364C22.2125 6.7639 22.1011 6.76416 21.9898 6.76397C21.9847 6.76397 21.9796 6.76457 21.9742 6.76537C21.9742 6.76537 21.9742 6.76537 21.9742 6.76537C21.9724 6.76564 21.9706 6.76593 21.9687 6.76623L21.9639 6.76698L21.9555 6.76814V10.1587H22.6438V8.80475C22.7065 8.7839 22.7378 8.8086 22.7682 8.85254C22.922 9.07444 23.0764 9.29598 23.2309 9.51754L23.2319 9.51902C23.3699 9.71697 23.5083 9.91559 23.6459 10.1138C23.6699 10.1485 23.6942 10.1652 23.7399 10.1648C23.9064 10.1633 24.0728 10.1634 24.2393 10.1635C24.3151 10.1636 24.3911 10.1637 24.4669 10.1636C24.4785 10.1636 24.4901 10.1624 24.5041 10.1609C24.5119 10.1601 24.5205 10.1592 24.5302 10.1584L23.4279 8.73867C23.4325 8.73631 23.4356 8.73443 23.4381 8.73296L23.4408 8.73141C23.4424 8.7305 23.4438 8.72983 23.4452 8.72937ZM20.2341 8.67034C20.2341 8.97829 20.2341 9.27789 20.2344 9.58616H21.4958V10.1591H19.5441V6.76686H21.4948V7.34233H20.2338V8.09134H21.4438V8.67034H20.2341ZM8.29562 8.14811C8.24124 8.12479 8.18653 8.10132 8.13262 8.07723C8.0865 8.05666 8.0399 8.03707 7.99331 8.01748C7.90626 7.98088 7.81919 7.94427 7.7356 7.90144C7.63526 7.8498 7.56993 7.76672 7.5706 7.64803C7.5716 7.487 7.66293 7.38178 7.80627 7.32244C8.05595 7.21915 8.29196 7.25027 8.50396 7.41835C8.53528 7.44328 8.56506 7.47026 8.5957 7.498C8.61039 7.51131 8.62529 7.5248 8.64064 7.53832L8.67721 7.49224C8.78537 7.35597 8.89239 7.22112 9.00265 7.08186L8.99232 7.0754C8.98646 7.0718 8.98167 7.06885 8.97732 7.0655C8.62697 6.78482 8.22495 6.66293 7.77294 6.7197C7.25758 6.7845 6.89657 7.14409 6.85923 7.61884C6.83157 7.97041 6.95924 8.24981 7.28925 8.42399C7.41126 8.48846 7.53993 8.54139 7.66793 8.594C7.73616 8.62212 7.80532 8.64832 7.87448 8.67452C7.96547 8.709 8.05645 8.74347 8.14528 8.78229C8.20662 8.80924 8.26629 8.85319 8.30962 8.90291C8.51263 9.13419 8.39296 9.50436 8.07861 9.60156C7.79027 9.69073 7.53026 9.6208 7.31125 9.42417C7.25975 9.37791 7.21674 9.32289 7.17336 9.2674C7.15358 9.24208 7.13369 9.21664 7.11291 9.19193L6.67889 9.59386C6.75156 9.72826 6.94657 9.92843 7.10958 10.0317C7.45426 10.2498 7.83227 10.2909 8.22662 10.2107C8.56697 10.1417 8.82831 9.96147 8.99232 9.66154C9.11465 9.43796 9.13632 9.19802 9.11065 8.95102C9.08232 8.67548 8.93865 8.46665 8.69231 8.33289C8.56469 8.26349 8.43012 8.20578 8.29562 8.14811ZM18.4573 6.8169C18.4733 6.77776 18.492 6.76237 18.537 6.76301C18.6818 6.76476 18.8267 6.76457 18.9717 6.76437C19.0387 6.76428 19.1058 6.76419 19.1727 6.76429C19.1833 6.76429 19.1938 6.76519 19.2064 6.76626C19.2135 6.76688 19.2215 6.76756 19.2304 6.76814C19.1687 6.90832 19.1097 7.04305 19.0507 7.17777L18.9782 7.34341L18.974 7.35295C18.5585 8.30145 18.1432 9.24972 17.7297 10.1988C17.711 10.2415 17.6887 10.255 17.643 10.2534C17.5603 10.2502 17.477 10.2502 17.3943 10.2534C17.349 10.2553 17.325 10.2428 17.3066 10.1998C17.0475 9.593 16.787 8.98686 16.5265 8.38065L16.3739 8.02558C16.2387 7.71051 16.1033 7.39562 15.9679 7.08064L15.8492 6.80471C15.8468 6.79905 15.8446 6.79327 15.8414 6.78478L15.8336 6.76429L15.9724 6.76422C16.1702 6.76408 16.3631 6.76393 16.5559 6.76654C16.5743 6.76686 16.6003 6.79541 16.6089 6.81626C16.7423 7.13483 16.8738 7.45391 17.0054 7.77304L17.5046 8.9847C17.5081 8.99298 17.5122 9.00112 17.5181 9.01275L17.5296 9.03571L17.5662 8.95082C17.5697 8.94263 17.5732 8.93454 17.5766 8.92652C17.5916 8.89177 17.6059 8.85845 17.62 8.82496L17.6217 8.8208C17.9008 8.15305 18.1799 7.48529 18.4573 6.8169ZM12.0671 9.2625L12.0089 9.31071C12.0014 9.31692 11.9941 9.32305 11.9868 9.3291C11.9552 9.3553 11.9252 9.38005 11.8951 9.4046C11.4307 9.78183 10.708 9.65416 10.3624 9.28495C10.025 8.92504 9.94835 8.35117 10.1827 7.90722C10.501 7.30512 11.2671 7.10912 11.8298 7.48796C11.8836 7.52417 11.9341 7.56493 11.9875 7.60805C12.0132 7.62871 12.0395 7.64994 12.0671 7.67145L12.0672 7.51921C12.0673 7.31936 12.0675 7.12491 12.0651 6.93045C12.0648 6.91088 12.0404 6.8833 12.0201 6.87367C11.4554 6.60679 10.8847 6.61417 10.3357 6.89453C9.65368 7.24289 9.31866 7.80649 9.33966 8.55198C9.35266 9.01229 9.53434 9.41198 9.87902 9.73211C10.4537 10.2656 11.2981 10.3916 12.0211 10.0651C12.0561 10.0494 12.0684 10.0311 12.0681 9.99419C12.0666 9.8353 12.0668 9.67641 12.067 9.51738L12.0671 9.2625ZM24.6726 6.73702C24.5176 6.73606 24.3972 6.84994 24.3966 6.99814C24.3959 7.14473 24.5173 7.26053 24.6713 7.25989C24.8206 7.25957 24.9416 7.14313 24.9423 6.99974C24.9426 6.85732 24.8199 6.73799 24.6726 6.73702ZM6.41555 10.16H5.72852V6.76974H6.41555V10.16Z" fill="white"/>
<path fill-rule="evenodd" clip-rule="evenodd" d="M0.92395 1.09436C0.92395 0.542075 1.37167 0.0943604 1.92395 0.0943604H26.6687C27.221 0.0943604 27.6687 0.542076 27.6687 1.09436V15.9056C27.6687 16.4579 27.221 16.9056 26.6687 16.9056H1.92395C1.37167 16.9056 0.92395 16.4579 0.92395 15.9056V1.09436ZM26.4525 0.499851C18.3492 0.499851 10.2459 0.499851 2.1426 0.500492C2.08426 0.500492 2.02459 0.507228 1.96792 0.520059C1.56358 0.610839 1.29723 0.93771 1.2969 1.34413C1.2964 1.92094 1.29646 2.49787 1.29652 3.07458L1.29657 15.6415C1.29657 16.1428 1.66691 16.5002 2.18627 16.5002H26.4375C26.9102 16.5002 27.2959 16.1383 27.2962 15.6905C27.2969 10.8975 27.2969 6.10445 27.2962 1.31141C27.2962 0.868423 26.9122 0.499851 26.4525 0.499851Z" fill="white"/>
</svg>
