<svg width="26" height="17" viewBox="0 0 26 17" fill="none" xmlns="http://www.w3.org/2000/svg">
<g clip-path="url(#clip0_2174_6668)">
<path d="M9.44781 2.21167H16.4503V14.7941H9.44781V2.21167Z" fill="#FF5F00"/>
<path d="M9.8925 8.50294C9.8925 5.94648 11.0929 3.67894 12.938 2.2117C11.582 1.14466 9.87032 0.5 8.00298 0.5C3.57898 0.5 -6.10352e-05 4.07904 -6.10352e-05 8.50294C-6.10352e-05 12.9267 3.57898 16.5059 8.00288 16.5059C9.87022 16.5059 11.5819 15.8612 12.938 14.7941C11.0929 13.3491 9.8925 11.0594 9.8925 8.50294Z" fill="#EB001B"/>
<path d="M25.8983 8.50294C25.8983 12.9267 22.3193 16.5059 17.8954 16.5059C16.028 16.5059 14.3163 15.8612 12.9603 14.7941C14.8276 13.3269 16.0058 11.0594 16.0058 8.50294C16.0058 5.94648 14.8053 3.67894 12.9603 2.2117C14.3162 1.14466 16.028 0.5 17.8954 0.5C22.3193 0.5 25.8983 4.10132 25.8983 8.50294Z" fill="#F79E1B"/>
</g>
<defs>
<clipPath id="clip0_2174_6668">
<rect width="25.9241" height="16" fill="white" transform="translate(-6.10352e-05 0.5)"/>
</clipPath>
</defs>
</svg>
